<?xml version="1.0" encoding="UTF-8"?>
<svg width="13px" height="19px" viewBox="0 0 13 19" version="1.1" xmlns="http://www.w3.org/2000/svg" xmlns:xlink="http://www.w3.org/1999/xlink">
    <!-- Generator: Sketch 46.2 (44496) - http://www.bohemiancoding.com/sketch -->
    <title>bottle</title>
    <desc>Created with Sketch.</desc>
    <defs></defs>
    <g id="*-Level-1-(Atoms)" stroke="none" stroke-width="1" fill="none" fill-rule="evenodd">
        <g id="Labels-and-Icons" transform="translate(-1225.000000, -4710.000000)" fill="#263645">
            <g id="Group-8" transform="translate(1209.000000, 4700.000000)">
                <g id="bottle" transform="translate(16.000000, 10.000000)">
                    <path d="M1.64668555,18.308 L10.6841855,18.308 L10.6841855,10.5635 L1.64668555,10.5635 L1.64668555,18.308 Z M3.33768555,7.961 L8.99268555,7.961 L10.4426855,8.933 C10.4861855,8.972 10.5221855,9.016 10.5511855,9.0635 L1.77918555,9.0635 C1.80818555,9.016 1.84418555,8.972 1.88768555,8.933 L3.33768555,7.961 Z M3.76968555,2.7905 C3.76968555,2.418 4.07218555,2.1155 4.44468555,2.1155 L7.87918555,2.1155 C8.25168555,2.1155 8.55468555,2.418 8.55468555,2.7905 L8.55468555,6.461 L3.76968555,6.461 L3.76968555,2.7905 Z M12.1836855,18.308 L12.1836855,9.7795 C12.1836855,9.461 12.1441855,9.143 12.0656855,8.834 C11.9591855,8.4145 11.7111855,8.03 11.3666855,7.7505 C11.3550189,7.74116667 10.9176855,7.4465 10.0546855,6.8665 L10.0546855,2.7905 C10.0546855,1.5915 9.07868555,0.6155 7.87918555,0.6155 L4.44468555,0.6155 C3.24518555,0.6155 2.26968555,1.5915 2.26968555,2.7905 L2.26968555,6.871 L1.01818555,7.71 C0.619685547,8.0295 0.371685547,8.414 0.264685547,8.834 C0.186185547,9.143 0.146685547,9.461 0.146685547,9.7795 L0.146685547,18.308 L12.1836855,18.308 Z" id="Fill-1"></path>
                </g>
            </g>
        </g>
    </g>
</svg>