<?xml version="1.0" encoding="UTF-8"?>
<svg width="54px" height="43px" viewBox="0 0 54 43" version="1.1" xmlns="http://www.w3.org/2000/svg" xmlns:xlink="http://www.w3.org/1999/xlink">
    <!-- Generator: Sketch 46.2 (44496) - http://www.bohemiancoding.com/sketch -->
    <title>cal_flip_4</title>
    <desc>Created with Sketch.</desc>
    <defs></defs>
    <g id="Page-1" stroke="none" stroke-width="1" fill="none" fill-rule="evenodd">
        <g id="cal_flip_4" transform="translate(1.000000, 1.000000)" stroke="#263645" stroke-width="2">
            <path d="M0.0122766372,1.702812 C0.115545891,2.52356739 0.167180517,4.25286758 0.167180517,6.89071258 C0.235567712,7.55102523 0.732178077,7.91088617 1.65701161,7.97029539 C2.58184515,8.02970461 15.1347966,8 39.315866,7.88118156 C40.4247483,7.64808552 40.9773536,7.14424237 40.9736818,6.36965211 C40.9681741,5.20776671 41.0314307,1.89773767 40.9791895,1.702812 C40.9269483,1.50788634 40.7943375,0.183903697 39.315866,0.183903697 C38.3302184,0.183903697 25.7772669,0.122602464 1.65701161,0 C0.457252376,0.314452617 -0.0909926162,0.882056618 0.0122766372,1.702812 Z" id="Path-4"></path>
            <path d="M0.749511719,10.9106445 C0.749511719,10.9106445 1.16634115,20.9404297 2,41" id="Path-7" stroke-linecap="round" stroke-linejoin="round"></path>
            <path d="M6.97753906,10.8984375 C6.9711927,13.4075326 8.54638672,33.8144531 13.2519531,40.9023438 C18.5859375,40.1686198 28.9833984,38.6630859 44.4443359,36.3857422 C39.9736328,31.1803385 37.6315104,23.9848633 37.4179688,14.7993164" id="Path-6" stroke-linecap="round" stroke-linejoin="round"></path>
            <g id="Group-17" transform="translate(31.500000, 7.000000) scale(1, -1) translate(-31.500000, -7.000000) translate(11.000000, 3.000000)" fill="#FFFFFF" stroke-linecap="round" stroke-linejoin="round">
                <path d="M1.00577324e-11,-8.55315818e-13 C3.56494141,1.30664062 6.89487286,3.34130859 6.89487286,8 C10.433087,8 21.8014627,8 41,8 C39.292379,3.70540365 35.7207669,1.03873698 30.2851636,-8.55315818e-13 C22.0283203,-6.44095888e-13 5.2890625,0 1.00577324e-11,-8.55315818e-13 Z" id="Path-5"></path>
            </g>
        </g>
    </g>
</svg>