<?xml version="1.0" encoding="UTF-8"?>
<svg width="68px" height="58px" viewBox="0 0 68 58" version="1.1" xmlns="http://www.w3.org/2000/svg" xmlns:xlink="http://www.w3.org/1999/xlink">
    <!-- Generator: Sketch 46.2 (44496) - http://www.bohemiancoding.com/sketch -->
    <title>Group 19</title>
    <desc>Created with Sketch.</desc>
    <defs></defs>
    <g id="Page-1" stroke="none" stroke-width="1" fill="none" fill-rule="evenodd">
        <g id="Group-19" transform="translate(1.000000, 1.000000)" stroke="#263645" stroke-width="2">
            <g id="cal_flip_2-copy" transform="translate(16.000000, 15.000000)">
                <path d="M0.0122766372,1.702812 C0.115545891,2.52356739 0.167180517,4.25286758 0.167180517,6.89071258 C0.235567712,7.55102523 0.732178077,7.91088617 1.65701161,7.97029539 C2.58184515,8.02970461 15.1347966,8 39.315866,7.88118156 C40.4247483,7.64808552 40.9773536,7.14424237 40.9736818,6.36965211 C40.9681741,5.20776671 41.0314307,1.89773767 40.9791895,1.702812 C40.9269483,1.50788634 40.7943375,0.183903697 39.315866,0.183903697 C38.3302184,0.183903697 25.7772669,0.122602464 1.65701161,0 C0.457252376,0.314452617 -0.0909926162,0.882056618 0.0122766372,1.702812 Z" id="Path-4"></path>
                <path d="M0.749511719,10.9106445 C0.749511719,10.9106445 1.16634115,20.9404297 2,41" id="Path-7" stroke-linecap="round" stroke-linejoin="round"></path>
                <path d="M5.97753906,10.8984375 C5.97330816,12.5711676 6.5747748,22.6050218 7.78193899,41 L43,39.7857823 C41.8857422,37.3498181 41.2666016,34.6811523 41.1425781,31.7797852" id="Path-6" stroke-linecap="round" stroke-linejoin="round"></path>
                <g id="Group-17" transform="translate(11.000000, 11.000000)" stroke-linecap="round" stroke-linejoin="round">
                    <path d="M0,-1.71043735e-15 C0.756481418,9.27912073 2.94190558,15.6124541 6.55627248,19 C9.92072839,19 20.7353042,18.257616 39,16.7728479 C32.8864319,11.4483393 29.4857283,5.85739003 28.7978892,-1.77635684e-15" id="Path-5"></path>
                </g>
            </g>
            <g id="Group-17-Copy-7" opacity="0.754868659" transform="translate(23.000000, 4.000000) scale(1, -1) translate(-23.000000, -4.000000) " fill="#FFFFFF" stroke-linecap="round" stroke-linejoin="round">
                <path d="M19.5664063,0 C16.7407227,2.47021484 4.48406172,2.72744843 0,2.30908203 C5.21167883,5.51109377 21.4780273,8.05810547 29.7631836,7.52587891 C34.6108398,6.84863281 43.2324219,6.25634766 45.1191406,2.30908203 C35.2475586,3.26611328 22.4462891,2.21386719 19.5664063,0 Z" id="Path-5"></path>
            </g>
        </g>
    </g>
</svg>