<?xml version="1.0" encoding="UTF-8"?>
<svg width="54px" height="43px" viewBox="0 0 54 43" version="1.1" xmlns="http://www.w3.org/2000/svg" xmlns:xlink="http://www.w3.org/1999/xlink">
    <!-- Generator: Sketch 46.2 (44496) - http://www.bohemiancoding.com/sketch -->
    <title>cal_flip_3</title>
    <desc>Created with Sketch.</desc>
    <defs></defs>
    <g id="Page-1" stroke="none" stroke-width="1" fill="none" fill-rule="evenodd">
        <g id="cal_flip_3" transform="translate(1.000000, 1.000000)" stroke="#263645" stroke-width="2">
            <path d="M0.0122766372,1.702812 C0.115545891,2.52356739 0.167180517,4.25286758 0.167180517,6.89071258 C0.235567712,7.55102523 0.732178077,7.91088617 1.65701161,7.97029539 C2.58184515,8.02970461 15.1347966,8 39.315866,7.88118156 C40.4247483,7.64808552 40.9773536,7.14424237 40.9736818,6.36965211 C40.9681741,5.20776671 41.0314307,1.89773767 40.9791895,1.702812 C40.9269483,1.50788634 40.7943375,0.183903697 39.315866,0.183903697 C38.3302184,0.183903697 25.7772669,0.122602464 1.65701161,0 C0.457252376,0.314452617 -0.0909926162,0.882056618 0.0122766372,1.702812 Z" id="Path-4"></path>
            <path d="M0.749511719,10.9106445 C0.749511719,10.9106445 1.16634115,20.9404297 2,41" id="Path-7" stroke-linecap="round" stroke-linejoin="round"></path>
            <path d="M5.97753906,10.8984375 C5.97330816,12.5711676 6.5747748,22.6050218 7.78193899,41 L43,39.7857823 C40.6263021,34.2345837 39.1826172,29.6223958 38.6689453,25.9492188" id="Path-6" stroke-linecap="round" stroke-linejoin="round"></path>
            <g id="Group-17" transform="translate(11.000000, 11.000000)" stroke-linecap="round" stroke-linejoin="round">
                <path d="M0,-1.73472348e-15 C0.795275337,5.8604973 3.09277253,9.8604973 6.89249158,12 C10.4294837,12 21.7986532,11.5311259 41,10.5933776 C34.5729156,7.23053011 30.997817,3.69940423 30.274704,-1.77635684e-15" id="Path-5"></path>
            </g>
        </g>
    </g>
</svg>