<?xml version="1.0" encoding="UTF-8"?>
<svg width="51px" height="64px" viewBox="0 0 51 64" version="1.1" xmlns="http://www.w3.org/2000/svg" xmlns:xlink="http://www.w3.org/1999/xlink">
    <!-- Generator: Sketch 46.2 (44496) - http://www.bohemiancoding.com/sketch -->
    <title>cal_flip_6</title>
    <desc>Created with Sketch.</desc>
    <defs></defs>
    <g id="Page-1" stroke="none" stroke-width="1" fill="none" fill-rule="evenodd">
        <g id="cal_flip_6" transform="translate(1.000000, 1.000000)" stroke="#263645" stroke-width="2">
            <path d="M0.0122766372,21.702812 C0.115545891,22.5235674 0.167180517,24.2528676 0.167180517,26.8907126 C0.235567712,27.5510252 0.732178077,27.9108862 1.65701161,27.9702954 C2.58184515,28.0297046 15.1347966,28 39.315866,27.8811816 C40.4247483,27.6480855 40.9773536,27.1442424 40.9736818,26.3696521 C40.9681741,25.2077667 41.0314307,21.8977377 40.9791895,21.702812 C40.9269483,21.5078863 40.7943375,20.1839037 39.315866,20.1839037 C38.3302184,20.1839037 25.7772669,20.1226025 1.65701161,20 C0.457252376,20.3144526 -0.0909926162,20.8820566 0.0122766372,21.702812 Z" id="Path-4"></path>
            <path d="M1,31 C1,31 1.41682943,41.0297852 2.25048828,61.0893555" id="Path-7" stroke-linecap="round" stroke-linejoin="round"></path>
            <path d="M6,31 C6,31 6.41682943,41.0297852 7.25048828,61.0893555 C21.1778971,61.0893555 30.159668,61.0893555 34.1958008,61.0893555" id="Path-7-Copy" stroke-linecap="round" stroke-linejoin="round"></path>
            <path d="M11.7109375,33 C11.7460938,43.8427734 13.1265462,51.7740885 15.8522949,56.7939453 C21.4955241,56.7210286 32.4291992,55.9902344 48.6533203,54.6015625 C43.171875,48.2057292 40.3243815,40.4150391 40.1108398,31.2294922" id="Path-6" stroke-linecap="round" stroke-linejoin="round"></path>
            <g id="Group-17" transform="translate(26.000000, 15.500000) scale(1, -1) translate(-26.000000, -15.500000) translate(6.000000, 0.000000)" fill="#FFFFFF" stroke-linecap="round" stroke-linejoin="round">
                <path d="M8.86924709,0.801269531 C13.3092692,9.16162109 3.08407221,18.2583008 0.138671875,23.1240234 C5.68994141,26.7416992 18.7158203,31.1953125 28.6904297,30.9638672 C33.390625,27.1982422 40.609375,15.9171719 39.171875,8.18359375 C30.2457921,8.18359375 14.609601,3.52978516 8.86924709,0.801269531 Z" id="Path-5"></path>
            </g>
        </g>
    </g>
</svg>