<?xml version="1.0" encoding="UTF-8"?>
<svg width="52px" height="53px" viewBox="0 0 52 53" version="1.1" xmlns="http://www.w3.org/2000/svg" xmlns:xlink="http://www.w3.org/1999/xlink">
    <!-- Generator: Sketch 46.2 (44496) - http://www.bohemiancoding.com/sketch -->
    <title>cal_flip_5</title>
    <desc>Created with Sketch.</desc>
    <defs></defs>
    <g id="Page-1" stroke="none" stroke-width="1" fill="none" fill-rule="evenodd">
        <g id="cal_flip_5" transform="translate(1.000000, 1.000000)" stroke="#263645" stroke-width="2">
            <path d="M0.0122766372,9.702812 C0.115545891,10.5235674 0.167180517,12.2528676 0.167180517,14.8907126 C0.235567712,15.5510252 0.732178077,15.9108862 1.65701161,15.9702954 C2.58184515,16.0297046 15.1347966,16 39.315866,15.8811816 C40.4247483,15.6480855 40.9773536,15.1442424 40.9736818,14.3696521 C40.9681741,13.2077667 41.0314307,9.89773767 40.9791895,9.702812 C40.9269483,9.50788634 40.7943375,8.1839037 39.315866,8.1839037 C38.3302184,8.1839037 25.7772669,8.12260246 1.65701161,8 C0.457252376,8.31445262 -0.0909926162,8.88205662 0.0122766372,9.702812 Z" id="Path-4"></path>
            <path d="M1,19 C1,19 1.41682943,29.0297852 2.25048828,49.0893555" id="Path-7" stroke-linecap="round" stroke-linejoin="round"></path>
            <path d="M6,19 C6,19 6.41682943,29.0297852 7.25048828,49.0893555" id="Path-7-Copy" stroke-linecap="round" stroke-linejoin="round"></path>
            <path d="M11.1108398,22.7993164 C12.2902018,35.6121419 14.3291016,44.7070312 17.2275391,50.0839844 C22.9208984,49.3951823 33.0511068,47.6819661 47.6181641,44.9443359 C43.055013,39.2758789 40.3391927,31.8942057 39.4707031,22.7993164" id="Path-6" stroke-linecap="round" stroke-linejoin="round"></path>
            <g id="Group-17" transform="translate(30.500000, 9.500000) scale(1, -1) translate(-30.500000, -9.500000) translate(11.000000, 0.000000)" fill="#FFFFFF" stroke-linecap="round" stroke-linejoin="round">
                <path d="M1.00577324e-11,-8.5442764e-13 C3.56494141,1.30664062 6.82602521,13.7495117 6.82602521,18.4082031 C10.3642393,18.4082031 20.8353168,18.4082031 38.2392578,18.4082031 C37.0065104,7.96809896 34.3551457,1.83203125 30.2851636,-8.5442764e-13 C22.0283203,-6.43207709e-13 5.2890625,8.8817842e-16 1.00577324e-11,-8.5442764e-13 Z" id="Path-5"></path>
            </g>
        </g>
    </g>
</svg>