<?xml version="1.0" encoding="UTF-8"?>
<svg width="68px" height="56px" viewBox="0 0 68 56" version="1.1" xmlns="http://www.w3.org/2000/svg" xmlns:xlink="http://www.w3.org/1999/xlink">
    <!-- Generator: Sketch 46.2 (44496) - http://www.bohemiancoding.com/sketch -->
    <title>cal_flip_9</title>
    <desc>Created with Sketch.</desc>
    <defs></defs>
    <g id="Page-1" stroke="none" stroke-width="1" fill="none" fill-rule="evenodd">
        <g id="cal_flip_9" transform="translate(1.000000, 1.000000)" stroke="#263645" stroke-width="2">
            <g id="Group-11-Copy-21" transform="translate(16.000000, 12.000000)">
                <path d="M0.0122766372,1.702812 C0.115545891,2.52356739 0.167180517,4.25286758 0.167180517,6.89071258 C0.235567712,7.55102523 0.732178077,7.91088617 1.65701161,7.97029539 C2.58184515,8.02970461 15.1347966,8 39.315866,7.88118156 C40.4247483,7.64808552 40.9773536,7.14424237 40.9736818,6.36965211 C40.9681741,5.20776671 41.0314307,1.89773767 40.9791895,1.702812 C40.9269483,1.50788634 40.7943375,0.183903697 39.315866,0.183903697 C38.3302184,0.183903697 25.7772669,0.122602464 1.65701161,0 C0.457252376,0.314452617 -0.0909926162,0.882056618 0.0122766372,1.702812 Z" id="Path-4"></path>
                <path d="M1,11 C1,11 1.41682943,21.0297852 2.25048828,41.0893555" id="Path-7" stroke-linecap="round" stroke-linejoin="round"></path>
            </g>
            <path d="M22.0000222,23 C21.9957913,24.6727301 22.5972579,34.7065843 23.8044221,53.1015625 L59.0224831,51.8873448 L59.0224831,48.6440297" id="Path-6-Copy-6" stroke-linecap="round" stroke-linejoin="round"></path>
            <g id="Group-17-Copy-6" transform="translate(26.000000, 22.000000)" stroke-linecap="round" stroke-linejoin="round">
                <path d="M0.859863281,0.94921875 C1.61906293,12.6950136 3.81233986,20.7119407 7.43969408,25 C10.8162393,25 21.6696746,24.0602676 40,22.1808028 C33.8644644,15.4408769 30.4515412,8.36368224 29.7612305,0.94921875" id="Path-5"></path>
            </g>
            <g id="Group-17-Copy-8" opacity="0.247056159" transform="translate(20.000000, 4.000000) scale(1, -1) translate(-20.000000, -4.000000) " fill="#FFFFFF" stroke-linecap="round" stroke-linejoin="round">
                <path d="M16.7800961,3 C14.2123826,4.30070809 5.97460938,6.37597656 0.561523438,0.0595703125 C5.59082031,7.9375 15.4570312,7.85253906 23.9052734,7.9375 C28.3103641,7.58089156 38.2855288,6.29432155 40,4.21586253 C31.0296416,4.71979371 19.3970607,4.16572652 16.7800961,3 Z" id="Path-5"></path>
            </g>
        </g>
    </g>
</svg>