<?xml version="1.0" encoding="UTF-8"?>
<svg width="60px" height="65px" viewBox="0 0 60 65" version="1.1" xmlns="http://www.w3.org/2000/svg" xmlns:xlink="http://www.w3.org/1999/xlink">
    <!-- Generator: Sketch 46.2 (44496) - http://www.bohemiancoding.com/sketch -->
    <title>cal_flip_7</title>
    <desc>Created with Sketch.</desc>
    <defs></defs>
    <g id="Page-1" stroke="none" stroke-width="1" fill="none" fill-rule="evenodd">
        <g id="cal_flip_7" transform="translate(1.000000, 1.000000)" stroke="#263645" stroke-width="2">
            <g id="Group-11-Copy-19">
                <path d="M8.01227664,22.702812 C8.11554589,23.5235674 8.16718052,25.2528676 8.16718052,27.8907126 C8.23556771,28.5510252 8.73217808,28.9108862 9.65701161,28.9702954 C10.5818451,29.0297046 23.1347966,29 47.315866,28.8811816 C48.4247483,28.6480855 48.9773536,28.1442424 48.9736818,27.3696521 C48.9681741,26.2077667 49.0314307,22.8977377 48.9791895,22.702812 C48.9269483,22.5078863 48.7943375,21.1839037 47.315866,21.1839037 C46.3302184,21.1839037 33.7772669,21.1226025 9.65701161,21 C8.45725238,21.3144526 7.90900738,21.8820566 8.01227664,22.702812 Z" id="Path-4"></path>
                <path d="M9,32 C9,32 9.41682943,42.0297852 10.2504883,62.0893555" id="Path-7" stroke-linecap="round" stroke-linejoin="round"></path>
                <g id="Group-17" transform="translate(22.000000, 8.500000) scale(1, -1) translate(-22.000000, -8.500000) " fill="#FFFFFF" stroke-linecap="round" stroke-linejoin="round">
                    <path d="M18.5073242,0.623046875 C19.5888672,7.77197266 5.30419922,7.22021484 0.790527344,6.671875 C6.03662109,10.8686523 22.484375,16.2451172 33.3095703,16.3510742 C37.4360352,14.8623047 43.0332031,11.0048828 43.0678711,5.21875 C34.2101467,5.21875 24.2037168,2.74445506 18.5073242,0.623046875 Z" id="Path-5"></path>
                </g>
            </g>
            <path d="M14.0000222,32 C13.9957913,33.6727301 14.5972579,43.7065843 15.8044221,62.1015625 L51.0224831,60.8873448 L51.0224831,57.6440297" id="Path-6-Copy-4" stroke-linecap="round" stroke-linejoin="round"></path>
            <g id="Group-17-Copy-4" transform="translate(18.000000, 31.000000)" stroke-linecap="round" stroke-linejoin="round">
                <path d="M0.859863281,0.94921875 C1.61906293,12.6950136 3.81233986,20.7119407 7.43969408,25 C10.8162393,25 21.6696746,24.0602676 40,22.1808028 C33.8644644,15.4408769 30.4515412,8.36368224 29.7612305,0.94921875" id="Path-5"></path>
            </g>
        </g>
    </g>
</svg>