<?xml version="1.0" encoding="UTF-8"?>
<svg width="15px" height="25px" viewBox="0 0 15 25" version="1.1" xmlns="http://www.w3.org/2000/svg" xmlns:xlink="http://www.w3.org/1999/xlink">
    <!-- Generator: Sketch 46.2 (44496) - http://www.bohemiancoding.com/sketch -->
    <title>razor</title>
    <desc>Created with Sketch.</desc>
    <defs></defs>
    <g id="*-Level-1-(Atoms)" stroke="none" stroke-width="1" fill="none" fill-rule="evenodd">
        <g id="Labels-and-Icons" transform="translate(-1212.000000, -4704.000000)">
            <g id="Group-8" transform="translate(1209.000000, 4700.000000)">
                <g id="razor" transform="translate(3.000000, 4.000000)">
                    <polygon id="Path-7" fill="#FFFFFF" points="1.4675293 1.10742188 1.4675293 5.87109375 4.84570312 10.0292969 5.71142578 14.189209 4.84570312 23.8894043 10.9523926 23.8894043 9.6953125 14.189209 10.9523926 10.0292969 14.3046875 5.87109375 14.3046875 1.10742188"></polygon>
                    <path d="M6.49662336,14.7378332 L9.10363613,14.7378332 C9.10313391,14.8667855 9.10313391,15.0027898 9.10313391,15.153402 L9.10363613,15.4440484 C9.10363613,16.9219622 9.51645919,22.2780146 9.79167456,24.4888407 L5.77895408,24.4888407 C6.05065393,22.3359423 6.50465885,16.9385849 6.50465885,15.4440484 C6.50465885,15.1780843 6.50164554,14.9509067 6.49662336,14.7378332 L6.49662336,14.7378332 Z M2.13737258,5.73938314 L2.13737258,1.51115933 L3.37584175,1.51115933 L3.37584175,5.55602914 C3.37584175,5.70966367 3.42204579,5.85221637 3.50039178,5.97109423 C3.57472001,6.30959392 3.87504628,6.56346869 4.23513646,6.56346869 L11.3179146,6.56346869 C11.6925691,6.56346869 12.0009308,6.28894141 12.0591881,5.92978921 C12.1224675,5.81947458 12.1616405,5.69304092 12.1616405,5.55602914 L12.1616405,1.51115933 L13.4503315,1.51115933 L13.4513359,5.70613763 C13.4252206,6.30405301 11.8316834,7.99655146 10.417438,9.14301767 C10.2803325,9.25383602 10.1864178,9.40998915 10.152267,9.58326875 L9.95991754,10.553433 C9.47879285,10.3428782 8.85001613,10.1434051 8.09216942,10.0945443 C7.2353858,10.0416538 6.42078847,10.1937771 5.62226212,10.5509144 L5.4359393,9.58679479 C5.40279292,9.41250775 5.30837597,9.25484346 5.16976385,9.14301767 C3.75602065,7.99655146 2.16198125,6.30405301 2.13737258,5.73938314 L2.13737258,5.73938314 Z M4.88249525,5.05281308 L10.654987,5.05281308 L10.654987,4.02320986 L4.88249525,4.02320986 L4.88249525,5.05281308 Z M4.88249525,2.51154681 L10.654987,2.51154681 L10.654987,1.51115933 L4.88249525,1.51115933 L4.88249525,2.51154681 Z M6.09284023,12.4071218 L5.97833456,12.0519994 C6.64276875,11.7019141 7.29514972,11.5563391 7.99574359,11.6026813 C8.68528868,11.6470087 9.23772829,11.8626007 9.58928078,12.0424287 L9.46171745,12.4383524 C9.35072731,12.7420955 9.27639907,12.9894219 9.22366619,13.2266739 L6.34194027,13.2266739 C6.28167413,12.9637322 6.20232371,12.7068351 6.09284023,12.4071218 L6.09284023,12.4071218 Z M11.3113857,24.4888407 C11.049228,22.5187926 10.6102896,16.8967762 10.6102896,15.4440484 L10.6097874,15.1513872 C10.6082808,13.8860431 10.6082808,13.6916073 10.8860072,12.9309904 L11.2039111,11.9457145 C11.2219909,11.8892979 11.2270131,11.8313701 11.2315331,11.7739461 C11.2551373,11.7215592 11.275226,11.6671575 11.286777,11.6082223 L11.577059,10.1439089 C12.5759702,9.31226751 14.8932033,7.22787508 14.956985,5.73938314 L14.956985,0.755579665 C14.956985,0.33849969 14.6199968,0 14.2036582,0 L1.38404583,0 C0.967707246,0 0.630719081,0.33849969 0.630719081,0.755579665 L0.631221299,5.7716212 C0.694500745,7.22938624 3.00872052,9.31025263 4.00863622,10.1423977 L4.29992256,11.653557 C4.32754455,11.7971172 4.33658447,11.8721714 4.3601887,11.9457145 L4.66905267,12.9002635 C4.93573034,13.6301534 4.99800535,13.9520304 4.99800535,15.4440484 C4.99800535,16.9133989 4.51436958,22.5908246 4.2587407,24.4888407 L11.3113857,24.4888407 Z" id="Fill-1" fill="#263645"></path>
                </g>
            </g>
        </g>
    </g>
</svg>